<svg id="Capa_2" data-name="Capa 2" xmlns="http://www.w3.org/2000/svg" viewBox="0 0 790.62 199.52"><defs><style>.cls-1{fill:#f0572d;}</style></defs><path class="cls-1" d="M216.91,143.56a77.88,77.88,0,0,1-140.22,0,35.44,35.44,0,0,1-12.14,2.31,89.87,89.87,0,0,0,164.51,0A35.25,35.25,0,0,1,216.91,143.56Z"/><path d="M285.48,51.7a236.22,236.22,0,0,0-39.15-11.33,45,45,0,0,1-13.93-5.24A118.46,118.46,0,0,0,76.73,24a151.93,151.93,0,0,1-13.89,6.4A155.72,155.72,0,0,1,48,35.52c-3.09.9-5.58,1.5-10.44,2.66-16.45,3.93-16.26,4-19.2,4.85A16,16,0,0,0,6.94,57.74,30.22,30.22,0,0,1,3.56,69.82,26,26,0,0,0,0,83v4.4a23.1,23.1,0,0,0,23,23.1h5.7a35.36,35.36,0,0,1,70.72,0h94.66a35.37,35.37,0,0,1,70.73,0h26a14.76,14.76,0,0,0,14.71-14.76V81.1A31.61,31.61,0,0,0,285.48,51.7ZM82.94,34.36a106.5,106.5,0,0,1,130.58,0Z"/><path d="M64.11,87.14A23.36,23.36,0,1,0,87.47,110.5,23.39,23.39,0,0,0,64.11,87.14Zm0,0A23.36,23.36,0,1,0,87.47,110.5,23.39,23.39,0,0,0,64.11,87.14Zm165.39,0a23.36,23.36,0,1,0,23.36,23.36A23.39,23.39,0,0,0,229.5,87.14Zm-165.39,0A23.36,23.36,0,1,0,87.47,110.5,23.39,23.39,0,0,0,64.11,87.14Zm0,0A23.36,23.36,0,1,0,87.47,110.5,23.39,23.39,0,0,0,64.11,87.14Zm165.39,0a23.36,23.36,0,1,0,23.36,23.36A23.39,23.39,0,0,0,229.5,87.14Zm-165.39,0A23.36,23.36,0,1,0,87.47,110.5,23.39,23.39,0,0,0,64.11,87.14Z"/></svg>