<svg id="Capa_2" data-name="Capa 2" xmlns="http://www.w3.org/2000/svg" viewBox="0 0 790.62 199.52"><defs><style>.cls-1{fill:#f0572d;}</style></defs><path d="M421.62,12.33a6.21,6.21,0,0,1,4.83,2.1,7.27,7.27,0,0,1,1.89,5V72.55a40.58,40.58,0,0,1-4.9,20A35.62,35.62,0,0,1,410,106.37a41.57,41.57,0,0,1-39.42,0A35.94,35.94,0,0,1,357,92.57a40,40,0,0,1-5-20V19.47a6.87,6.87,0,0,1,2.1-5,7.39,7.39,0,0,1,5.46-2.1,6.81,6.81,0,0,1,4.83,2.1,6.75,6.75,0,0,1,2.17,5V72.55a24.86,24.86,0,0,0,3.29,13,24,24,0,0,0,8.75,8.68,22.82,22.82,0,0,0,11.63,3.16,24.34,24.34,0,0,0,12.18-3.16,25.3,25.3,0,0,0,9.1-8.68,23.62,23.62,0,0,0,3.51-13V19.47a7.6,7.6,0,0,1,1.75-5A5.93,5.93,0,0,1,421.62,12.33Z"/><path d="M486.59,35.16A31.55,31.55,0,0,1,504,40.06a34.67,34.67,0,0,1,12.11,13.51,42.3,42.3,0,0,1,4.49,19.82,42.66,42.66,0,0,1-4.49,19.88,35.28,35.28,0,0,1-12,13.66,30.45,30.45,0,0,1-17.09,5,28.91,28.91,0,0,1-10.08-1.75,32.92,32.92,0,0,1-8.4-4.48,29.41,29.41,0,0,1-5.95-5.81,15.17,15.17,0,0,1-2.87-5.61l3.78-2v12.19a7,7,0,0,1-2,5,6.66,6.66,0,0,1-5,2.1,6.94,6.94,0,0,1-7.15-7.14V14a7,7,0,0,1,2-5,6.83,6.83,0,0,1,5.12-2.1,6.66,6.66,0,0,1,5,2.1,7,7,0,0,1,2,5V53.36l-2.24-1.26a12.2,12.2,0,0,1,2.66-5.53A31.8,31.8,0,0,1,469.58,41a28.86,28.86,0,0,1,7.84-4.27A26.62,26.62,0,0,1,486.59,35.16Zm-1.54,13a20.71,20.71,0,0,0-11.69,3.29,22.48,22.48,0,0,0-7.77,9,28.88,28.88,0,0,0-2.8,13,29.72,29.72,0,0,0,2.8,13.09,22.7,22.7,0,0,0,7.77,9.17A20.29,20.29,0,0,0,485.05,99a19.77,19.77,0,0,0,11.49-3.37,22.89,22.89,0,0,0,7.7-9.24,29.85,29.85,0,0,0,2.8-13,28.88,28.88,0,0,0-2.8-13,22.71,22.71,0,0,0-7.7-9A20.16,20.16,0,0,0,485.05,48.18Z"/><path d="M542.47,27q-4.07,0-5.88-1.47c-1.22-1-1.82-2.63-1.82-5V18.35c0-2.33.65-4,2-4.9a10.16,10.16,0,0,1,5.88-1.4q4.2,0,6,1.47t1.82,4.83v2.24q0,3.64-1.89,5C547.3,26.57,545.27,27,542.47,27Zm7.14,76.33a7,7,0,0,1-2,5.11,7.27,7.27,0,0,1-10.08,0,7,7,0,0,1-2-5.11V43.42a6.9,6.9,0,0,1,2-5.11,7.18,7.18,0,0,1,10,0,7,7,0,0,1,2,5.11Z"/><path class="cls-1" d="M639.66,18.07a6.16,6.16,0,0,1,3.57,4.76,7.12,7.12,0,0,1-1.75,5.88,5.21,5.21,0,0,1-3.92,2.46,9,9,0,0,1-4.9-1.06,41.18,41.18,0,0,0-8.48-3.36,35.21,35.21,0,0,0-9.45-1.26,37,37,0,0,0-14.35,2.66,32.7,32.7,0,0,0-11,7.43,32.08,32.08,0,0,0-7.07,11.34,41.53,41.53,0,0,0-2.45,14.56,42.68,42.68,0,0,0,2.66,15.62,32.84,32.84,0,0,0,7.35,11.48,30,30,0,0,0,11.07,7,40.11,40.11,0,0,0,13.79,2.31A39.15,39.15,0,0,0,624,96.78a35,35,0,0,0,8.62-3.37,8.18,8.18,0,0,1,4.9-.91A6.31,6.31,0,0,1,641.62,95a7.52,7.52,0,0,1,1.68,6,5.91,5.91,0,0,1-3.5,4.48,48.53,48.53,0,0,1-7.7,3.43,54.34,54.34,0,0,1-8.55,2.24,50.66,50.66,0,0,1-8.82.77,54.35,54.35,0,0,1-19.11-3.36,47.56,47.56,0,0,1-16-9.8,46.42,46.42,0,0,1-11-15.83,53.4,53.4,0,0,1-4.06-21.43,51.35,51.35,0,0,1,3.78-19.88A47.86,47.86,0,0,1,579,25.77a48.42,48.42,0,0,1,15.89-10.43,52.28,52.28,0,0,1,19.89-3.71,51.21,51.21,0,0,1,13.1,1.68A50.07,50.07,0,0,1,639.66,18.07Z"/><path class="cls-1" d="M717.94,35.72a6.72,6.72,0,0,1,5,2,7,7,0,0,1,2,5.11v60.5a7,7,0,0,1-2,5.11,7.27,7.27,0,0,1-10.08,0,7,7,0,0,1-2-5.11V93.27l2.94.56a10.68,10.68,0,0,1-2,5.54,25.48,25.48,0,0,1-5.53,5.95,32,32,0,0,1-8.27,4.69,27.43,27.43,0,0,1-10.22,1.89,31.34,31.34,0,0,1-17.36-5,34.92,34.92,0,0,1-12.19-13.66,42.36,42.36,0,0,1-4.48-19.74,42.62,42.62,0,0,1,4.48-20A34.77,34.77,0,0,1,670.4,40.06a31.92,31.92,0,0,1,28-2.94,32.47,32.47,0,0,1,8.89,5,26,26,0,0,1,5.88,6.51,12.56,12.56,0,0,1,2.1,6.51l-4.34.42V42.86a7.11,7.11,0,0,1,2-5A6.6,6.6,0,0,1,717.94,35.72ZM689.37,99A20.44,20.44,0,0,0,701,95.65a22.48,22.48,0,0,0,7.84-9.17,29.38,29.38,0,0,0,2.8-13,29.46,29.46,0,0,0-2.8-13,22.08,22.08,0,0,0-7.84-9.1,20.85,20.85,0,0,0-11.63-3.29A20.22,20.22,0,0,0,678,51.47a22.8,22.8,0,0,0-7.84,9,28.69,28.69,0,0,0-2.87,13,28.74,28.74,0,0,0,2.87,13A23.09,23.09,0,0,0,678,95.65,19.82,19.82,0,0,0,689.37,99Z"/><path class="cls-1" d="M751.55,110.5a6.94,6.94,0,0,1-7.14-7.14V44a6.94,6.94,0,0,1,7.14-7.14,6.77,6.77,0,0,1,5,2,6.94,6.94,0,0,1,2,5.11V59.66l-1.4-6a24.91,24.91,0,0,1,3.43-7.28,26.38,26.38,0,0,1,5.53-5.88,25.1,25.1,0,0,1,7.22-3.92,24.78,24.78,0,0,1,8.33-1.4,10.29,10.29,0,0,1,6.3,2,5.9,5.9,0,0,1,2.66,4.9q0,3.78-2,5.53a6.35,6.35,0,0,1-4.34,1.75,9.47,9.47,0,0,1-4.06-.91,10.85,10.85,0,0,0-4.62-.91,13.35,13.35,0,0,0-6,1.54A17.69,17.69,0,0,0,764,53.57a23.32,23.32,0,0,0-4,7.07,26.66,26.66,0,0,0-1.47,9.11v33.61a6.94,6.94,0,0,1-2,5.11A6.77,6.77,0,0,1,751.55,110.5Z"/><path class="cls-1" d="M216.91,143.56a77.88,77.88,0,0,1-140.22,0,35.44,35.44,0,0,1-12.14,2.31,89.87,89.87,0,0,0,164.51,0A35.25,35.25,0,0,1,216.91,143.56Z"/><path d="M285.48,51.7a236.22,236.22,0,0,0-39.15-11.33,45,45,0,0,1-13.93-5.24A118.46,118.46,0,0,0,76.73,24a151.93,151.93,0,0,1-13.89,6.4A155.72,155.72,0,0,1,48,35.52c-3.09.9-5.58,1.5-10.44,2.66-16.45,3.93-16.26,4-19.2,4.85A16,16,0,0,0,6.94,57.74,30.22,30.22,0,0,1,3.56,69.82,26,26,0,0,0,0,83v4.4a23.1,23.1,0,0,0,23,23.1h5.7a35.36,35.36,0,0,1,70.72,0h94.66a35.37,35.37,0,0,1,70.73,0h26a14.76,14.76,0,0,0,14.71-14.76V81.1A31.61,31.61,0,0,0,285.48,51.7ZM82.94,34.36a106.5,106.5,0,0,1,130.58,0Z"/><path d="M64.11,87.14A23.36,23.36,0,1,0,87.47,110.5,23.39,23.39,0,0,0,64.11,87.14Zm0,0A23.36,23.36,0,1,0,87.47,110.5,23.39,23.39,0,0,0,64.11,87.14Zm165.39,0a23.36,23.36,0,1,0,23.36,23.36A23.39,23.39,0,0,0,229.5,87.14Zm-165.39,0A23.36,23.36,0,1,0,87.47,110.5,23.39,23.39,0,0,0,64.11,87.14Zm0,0A23.36,23.36,0,1,0,87.47,110.5,23.39,23.39,0,0,0,64.11,87.14Zm165.39,0a23.36,23.36,0,1,0,23.36,23.36A23.39,23.39,0,0,0,229.5,87.14Zm-165.39,0A23.36,23.36,0,1,0,87.47,110.5,23.39,23.39,0,0,0,64.11,87.14Z"/></svg>