<svg id="Capa_1" data-name="Capa 1" xmlns="http://www.w3.org/2000/svg" viewBox="0 0 790.62 250"><defs><style>.cls-1{fill:#fff;}.cls-2{fill:#f0572d;}.cls-3{fill:#1a1a1a;}</style></defs><rect class="cls-1" x="211.41" width="250" height="250" rx="14.93"/><path class="cls-2" d="M406.1,137.49c-12.56,26.5-39.08,44.8-69.69,44.8s-57.14-18.3-69.7-44.81a34.65,34.65,0,0,1-12.07,2.35c13.87,32.18,45.3,54.69,81.77,54.69s67.91-22.51,81.76-54.69A34.37,34.37,0,0,1,406.1,137.49Z"/><path class="cls-3" d="M254.2,80C241.4,80,231,90.66,231,103.79S241.4,127.6,254.2,127.6s23.22-10.68,23.22-23.81S267,80,254.2,80Zm0,0C241.4,80,231,90.66,231,103.79S241.4,127.6,254.2,127.6s23.22-10.68,23.22-23.81S267,80,254.2,80Zm164.41,0c-12.81,0-23.23,10.68-23.23,23.81s10.42,23.81,23.23,23.81,23.22-10.68,23.22-23.81S431.42,80,418.61,80ZM254.2,80C241.4,80,231,90.66,231,103.79S241.4,127.6,254.2,127.6s23.22-10.68,23.22-23.81S267,80,254.2,80Zm0,0C241.4,80,231,90.66,231,103.79S241.4,127.6,254.2,127.6s23.22-10.68,23.22-23.81S267,80,254.2,80Zm164.41,0c-12.81,0-23.23,10.68-23.23,23.81s10.42,23.81,23.23,23.81,23.22-10.68,23.22-23.81S431.42,80,418.61,80ZM254.2,80C241.4,80,231,90.66,231,103.79S241.4,127.6,254.2,127.6s23.22-10.68,23.22-23.81S267,80,254.2,80Z"/></svg>