<svg width="274" height="102" viewBox="0 0 274 102" fill="none" xmlns="http://www.w3.org/2000/svg">
<g clip-path="url(#clip0_9180_20517)">
<path d="M195.077 51.0921C189.309 62.7876 180.345 72.6295 169.211 79.489C158.078 86.3486 145.226 89.9483 132.13 89.8754C119.033 89.8024 106.223 86.0597 95.1663 79.0765C84.11 72.0932 75.2557 62.1521 69.6188 50.393C66.1398 51.6865 62.4594 52.3618 58.7454 52.3884C64.9519 66.6288 75.1896 78.7657 88.2101 87.3192C101.231 95.8728 116.472 100.473 132.075 100.56C147.678 100.647 162.969 96.2168 176.084 87.8089C189.199 79.401 199.571 67.3789 205.936 53.2085C202.219 53.1452 198.543 52.4287 195.077 51.0921Z" fill="#F0572D"/>
<path d="M58.6439 0.117438C54.5101 0.094404 50.4624 1.2912 47.0126 3.55649C43.5627 5.82178 40.8657 9.05383 39.2626 12.8439C37.6595 16.634 37.2223 20.8119 38.0063 24.8492C38.7903 28.8866 40.7603 32.6021 43.6671 35.526C46.5739 38.4498 50.287 40.4506 54.3369 41.2754C58.3868 42.1002 62.5915 41.7119 66.4194 40.1596C70.2473 38.6073 73.5264 35.9608 75.842 32.5547C78.1577 29.1486 79.4059 25.1359 79.4288 21.024C79.4524 15.5122 77.2775 10.216 73.3811 6.29682C69.4847 2.37762 64.1849 0.155378 58.6439 0.117438ZM58.6439 0.117438C54.5101 0.094404 50.4624 1.2912 47.0126 3.55649C43.5627 5.82178 40.8657 9.05383 39.2626 12.8439C37.6595 16.634 37.2223 20.8119 38.0063 24.8492C38.7903 28.8866 40.7603 32.6021 43.6671 35.526C46.5739 38.4498 50.287 40.4506 54.3369 41.2754C58.3868 42.1002 62.5915 41.7119 66.4194 40.1596C70.2473 38.6073 73.5264 35.9608 75.842 32.5547C78.1577 29.1486 79.4059 25.1359 79.4288 21.024C79.4524 15.5122 77.2775 10.216 73.3811 6.29682C69.4847 2.37762 64.1849 0.155378 58.6439 0.117438ZM206.622 0.941989C202.488 0.918955 198.441 2.11575 194.991 4.38104C191.541 6.64633 188.844 9.87838 187.241 13.6685C185.638 17.4585 185.201 21.6364 185.985 25.6738C186.769 29.7112 188.739 33.4267 191.645 36.3505C194.552 39.2744 198.265 41.2752 202.315 42.1C206.365 42.9247 210.57 42.5364 214.398 40.9842C218.226 39.4319 221.505 36.7854 223.82 33.3792C226.136 29.9731 227.384 25.9604 227.407 21.8485C227.431 16.3368 225.256 11.0406 221.359 7.12137C217.463 3.20217 212.163 0.979929 206.622 0.941989V0.941989ZM58.6439 0.117438C54.5101 0.094404 50.4624 1.2912 47.0126 3.55649C43.5627 5.82178 40.8657 9.05383 39.2626 12.8439C37.6595 16.634 37.2223 20.8119 38.0063 24.8492C38.7903 28.8866 40.7603 32.6021 43.6671 35.526C46.5739 38.4498 50.287 40.4506 54.3369 41.2754C58.3868 42.1002 62.5915 41.7119 66.4194 40.1596C70.2473 38.6073 73.5264 35.9608 75.842 32.5547C78.1577 29.1486 79.4059 25.1359 79.4288 21.024C79.4524 15.5122 77.2775 10.216 73.3811 6.29682C69.4847 2.37762 64.1849 0.155378 58.6439 0.117438V0.117438ZM58.6439 0.117438C54.5101 0.094404 50.4624 1.2912 47.0126 3.55649C43.5627 5.82178 40.8657 9.05383 39.2626 12.8439C37.6595 16.634 37.2223 20.8119 38.0063 24.8492C38.7903 28.8866 40.7603 32.6021 43.6671 35.526C46.5739 38.4498 50.287 40.4506 54.3369 41.2754C58.3868 42.1002 62.5915 41.7119 66.4194 40.1596C70.2473 38.6073 73.5264 35.9608 75.842 32.5547C78.1577 29.1486 79.4059 25.1359 79.4288 21.024C79.4524 15.5122 77.2775 10.216 73.3811 6.29682C69.4847 2.37762 64.1849 0.155378 58.6439 0.117438V0.117438ZM206.622 0.941989C202.488 0.918955 198.441 2.11575 194.991 4.38104C191.541 6.64633 188.844 9.87838 187.241 13.6685C185.638 17.4585 185.201 21.6364 185.985 25.6738C186.769 29.7112 188.739 33.4267 191.645 36.3505C194.552 39.2744 198.265 41.2752 202.315 42.1C206.365 42.9247 210.57 42.5364 214.398 40.9842C218.226 39.4319 221.505 36.7854 223.82 33.3792C226.136 29.9731 227.384 25.9604 227.407 21.8485C227.431 16.3368 225.256 11.0406 221.359 7.12137C217.463 3.20217 212.163 0.979929 206.622 0.941989V0.941989ZM58.6439 0.117438C54.5101 0.094404 50.4624 1.2912 47.0126 3.55649C43.5627 5.82178 40.8657 9.05383 39.2626 12.8439C37.6595 16.634 37.2223 20.8119 38.0063 24.8492C38.7903 28.8866 40.7603 32.6021 43.6671 35.526C46.5739 38.4498 50.287 40.4506 54.3369 41.2754C58.3868 42.1002 62.5915 41.7119 66.4194 40.1596C70.2473 38.6073 73.5264 35.9608 75.842 32.5547C78.1577 29.1486 79.4059 25.1359 79.4288 21.024C79.4524 15.5122 77.2775 10.216 73.3811 6.29682C69.4847 2.37762 64.1849 0.155378 58.6439 0.117438V0.117438Z" fill="#1A1A1A"/>
</g>
<defs>
<clipPath id="clip0_9180_20517">
<rect width="272" height="100" fill="white" transform="translate(1.28027 0.243164) rotate(0.319255)"/>
</clipPath>
</defs>
</svg>
