<svg width="360" height="86" viewBox="0 0 360 86" fill="none" xmlns="http://www.w3.org/2000/svg">
<path d="M57.0072 4.44794C57.7521 4.42723 58.4924 4.57051 59.1758 4.86764C59.8592 5.16477 60.469 5.60848 60.9619 6.16737C61.9789 7.28597 62.5321 8.74962 62.5093 10.2612V53.7546C62.6022 59.4673 61.2204 65.1074 58.4973 70.1301C55.939 74.8417 52.1314 78.7569 47.493 81.4456C42.5333 84.1165 36.9881 85.5147 31.3549 85.5147C25.7217 85.5147 20.1766 84.1165 15.2169 81.4456C10.5467 78.7673 6.70085 74.8591 4.09789 70.1465C1.32592 65.1394 -0.0855846 59.4934 0.00401482 53.771V10.294C-0.0021738 9.53065 0.147085 8.77403 0.442687 8.07022C0.73829 7.3664 1.17405 6.73012 1.72345 6.20012C2.31236 5.62435 3.01262 5.17487 3.78133 4.87922C4.55004 4.58356 5.371 4.44795 6.19396 4.48069C6.93428 4.49038 7.66525 4.64741 8.34424 4.94262C9.02323 5.23783 9.63665 5.66531 10.1487 6.20012C10.7131 6.72149 11.1627 7.35485 11.4686 8.05975C11.7745 8.76464 11.9301 9.52559 11.9254 10.294V53.7546C11.8314 57.4824 12.7632 61.1644 14.6192 64.3987C16.3479 67.3509 18.8174 69.8007 21.7835 71.5057C24.6684 73.2058 27.9572 74.0994 31.3058 74.093C34.7994 74.1196 38.2385 73.2273 41.2785 71.5057C44.3207 69.8015 46.8835 67.357 48.7294 64.3987C50.6998 61.2047 51.6983 57.5063 51.6032 53.7546V10.294C51.5744 8.80169 52.083 7.34874 53.0361 6.20012C53.5167 5.62001 54.1257 5.1597 54.815 4.85559C55.5042 4.55148 56.2547 4.41191 57.0072 4.44794V4.44794Z" fill="black"/>
<path d="M110.203 23.1408C115.244 23.0583 120.199 24.4529 124.458 27.1528C128.686 29.8945 132.108 33.7124 134.373 38.2144C136.899 43.2447 138.161 48.8148 138.049 54.4426C138.157 60.0856 136.895 65.6708 134.373 70.7198C132.131 75.2424 128.744 79.0986 124.548 81.9043C120.395 84.6327 115.523 86.0583 110.555 85.9982C107.74 86.015 104.945 85.5298 102.301 84.5653C99.8432 83.6823 97.5265 82.4467 95.4237 80.8972C93.5827 79.5503 91.9424 77.9486 90.552 76.1401C89.4558 74.7904 88.6553 73.2255 88.2021 71.5468L91.2971 69.9092V79.8901C91.3079 80.6468 91.1688 81.3982 90.8878 82.1008C90.6067 82.8035 90.1893 83.4435 89.6595 83.984C89.1359 84.5417 88.5008 84.983 87.7955 85.2793C87.0902 85.5755 86.3305 85.72 85.5657 85.7034C84.7911 85.7272 84.0199 85.5923 83.2994 85.307C82.579 85.0218 81.9244 84.5921 81.3761 84.0446C80.8278 83.497 80.3972 82.8431 80.111 82.123C79.8247 81.403 79.6887 80.6319 79.7114 79.8574V5.81548C79.7006 5.05878 79.8397 4.30742 80.1208 3.60477C80.4018 2.90212 80.8193 2.26208 81.349 1.7216C81.8891 1.15837 82.5411 0.71442 83.2631 0.418293C83.9851 0.122166 84.761 -0.0195791 85.5411 0.0021732C86.3059 -0.0144198 87.0657 0.130094 87.771 0.426325C88.4763 0.722556 89.1114 1.16387 89.635 1.7216C90.1647 2.26208 90.5821 2.90212 90.8632 3.60477C91.1443 4.30742 91.2834 5.05878 91.2725 5.81548V38.0425L89.4385 37.0108C89.7668 35.3406 90.5165 33.7821 91.6164 32.483C92.9722 30.7736 94.5374 29.2414 96.2752 27.9224C98.2207 26.4311 100.386 25.2516 102.694 24.4262C105.102 23.5603 107.644 23.1252 110.203 23.1408V23.1408ZM108.942 33.7849C105.554 33.7061 102.22 34.6444 99.3702 36.4786C96.6266 38.3195 94.4292 40.8648 93.0083 43.8476C91.4266 47.169 90.6416 50.8136 90.7158 54.4917C90.655 58.1921 91.4391 61.8577 93.0083 65.2095C94.4158 68.2383 96.6135 70.832 99.3702 72.7176C102.211 74.5717 105.551 75.5117 108.942 75.4114C112.287 75.4862 115.574 74.5223 118.349 72.6521C121.088 70.7374 123.264 68.1254 124.654 65.0866C126.209 61.7561 126.992 58.1178 126.947 54.4426C127.021 50.7645 126.236 47.1199 124.654 43.7985C123.241 40.8277 121.066 38.2849 118.349 36.4295C115.551 34.6244 112.271 33.7081 108.942 33.8012V33.7849Z" fill="black"/>
<path d="M155.956 16.4598C153.734 16.4598 152.13 16.0586 151.142 15.2562C150.143 14.4374 149.651 13.1028 149.651 11.1623V9.37739C149.651 7.46964 150.184 6.10228 151.289 5.36539C152.74 4.50372 154.419 4.10393 156.103 4.2191C158.396 4.2191 160.033 4.6203 161.016 5.4227C161.999 6.2251 162.495 7.54333 162.506 9.37739V11.2114C162.506 13.1983 161.99 14.563 160.959 15.3053C159.911 16.1077 158.248 16.4598 155.956 16.4598ZM161.802 78.9569C161.825 79.7287 161.692 80.4971 161.41 81.2161C161.129 81.935 160.705 82.5897 160.164 83.1409C159.055 84.2076 157.577 84.8035 156.038 84.8035C154.499 84.8035 153.02 84.2076 151.911 83.1409C151.371 82.5897 150.947 81.935 150.665 81.2161C150.384 80.4971 150.251 79.7287 150.274 78.9569V29.9041C150.246 29.1318 150.377 28.362 150.659 27.6423C150.94 26.9227 151.367 26.2685 151.911 25.7201C153.008 24.6557 154.477 24.0604 156.005 24.0604C157.534 24.0604 159.002 24.6557 160.099 25.7201C160.64 26.2713 161.063 26.926 161.345 27.645C161.626 28.3639 161.759 29.1324 161.737 29.9041L161.802 78.9569Z" fill="black"/>
<path d="M235.533 9.14824C236.309 9.49815 236.985 10.0391 237.496 10.7206C238.007 11.4021 238.337 12.202 238.456 13.0456C238.591 13.9042 238.532 14.7821 238.284 15.6151C238.036 16.4481 237.605 17.2151 237.023 17.86C236.679 18.4203 236.211 18.8937 235.654 19.243C235.097 19.5924 234.467 19.8084 233.813 19.8742C232.421 19.9707 231.029 19.6698 229.801 19.0063C227.596 17.835 225.267 16.9123 222.858 16.2552C220.338 15.5621 217.735 15.2151 215.121 15.2236C211.098 15.1623 207.104 15.9026 203.371 17.4015C199.985 18.7923 196.919 20.8627 194.365 23.485C191.805 26.1393 189.832 29.3029 188.576 32.7699C187.201 36.592 186.521 40.6296 186.57 44.6913C186.491 49.053 187.23 53.3908 188.748 57.4806C190.074 61.0002 192.124 64.2023 194.766 66.8801C197.328 69.4348 200.423 71.392 203.83 72.6115C207.454 73.8982 211.275 74.5384 215.121 74.5029C217.678 74.5038 220.226 74.1987 222.711 73.5941C225.175 72.9908 227.548 72.0629 229.768 70.8348C230.996 70.1752 232.398 69.9147 233.78 70.0897C235.126 70.3029 236.332 71.0386 237.137 72.1367C237.704 72.8096 238.121 73.5964 238.358 74.4438C238.595 75.2912 238.648 76.1797 238.513 77.0493C238.382 77.8523 238.051 78.6094 237.55 79.2506C237.049 79.8917 236.395 80.3962 235.647 80.7174C233.631 81.8346 231.522 82.7743 229.343 83.5258C227.063 84.3263 224.722 84.9396 222.342 85.3599C219.958 85.7804 217.542 85.9913 215.121 85.9903C209.782 86.0193 204.482 85.0874 199.474 83.2392C194.617 81.461 190.164 78.7333 186.373 75.2152C182.497 71.5727 179.429 67.1571 177.367 62.254C175.063 56.6962 173.932 50.7229 174.043 44.7077C173.984 39.1303 175.036 33.5972 177.138 28.4304C179.145 23.562 182.114 19.1483 185.866 15.4528C189.596 11.7746 194.018 8.87208 198.876 6.91299C204.055 4.84963 209.587 3.81775 215.162 3.87533C218.781 3.86894 222.387 4.3313 225.887 5.25087C229.255 6.13516 232.496 7.44482 235.533 9.14824V9.14824Z" fill="#F0572D"/>
<path d="M299.627 23.5987C300.385 23.5747 301.14 23.7077 301.845 23.9895C302.549 24.2713 303.188 24.6958 303.72 25.2363C304.261 25.7874 304.685 26.4421 304.966 27.1611C305.248 27.8801 305.381 28.6485 305.358 29.4202V78.9562C305.381 79.7279 305.248 80.4963 304.966 81.2153C304.685 81.9343 304.261 82.589 303.72 83.1401C302.611 84.2069 301.133 84.8027 299.594 84.8027C298.055 84.8027 296.576 84.2069 295.467 83.1401C294.926 82.589 294.503 81.9343 294.221 81.2153C293.94 80.4963 293.807 79.7279 293.83 78.9562V70.7193L296.237 71.1778C296.127 72.8134 295.56 74.3852 294.599 75.7138C293.36 77.5694 291.832 79.2142 290.071 80.5855C288.018 82.1956 285.736 83.4899 283.3 84.4256C280.635 85.47 277.795 85.9952 274.932 85.9731C269.895 86.0332 264.952 84.6094 260.718 81.8792C256.456 79.1051 253.01 75.2442 250.737 70.6947C248.227 65.6828 246.968 60.1369 247.069 54.5321C246.942 48.8565 248.201 43.2354 250.737 38.1566C253.027 33.6718 256.466 29.8745 260.702 27.1522C264.085 25.025 267.911 23.7018 271.885 23.2845C275.859 22.8672 279.877 23.3668 283.628 24.745C286.255 25.7177 288.711 27.0993 290.907 28.8389C292.802 30.3301 294.43 32.1325 295.721 34.1691C296.776 35.7526 297.371 37.5978 297.44 39.4994L293.887 39.8433V29.4448C293.875 27.9183 294.463 26.4481 295.524 25.3509C296.044 24.7837 296.679 24.334 297.386 24.0318C298.094 23.7297 298.857 23.582 299.627 23.5987V23.5987ZM276.234 75.4109C279.612 75.4788 282.932 74.5226 285.757 72.668C288.54 70.7969 290.76 68.2007 292.176 65.1598C293.743 61.8336 294.528 58.1923 294.468 54.5157C294.525 50.8393 293.741 47.1986 292.176 43.8716C290.766 40.8425 288.544 38.2635 285.757 36.4208C282.918 34.6024 279.605 33.6651 276.234 33.727C272.924 33.6981 269.681 34.662 266.925 36.4945C264.169 38.3372 261.953 40.8807 260.505 43.8634C258.898 47.1781 258.093 50.8243 258.156 54.5075C258.095 58.1906 258.9 61.8364 260.505 65.1516C261.941 68.182 264.156 70.7761 266.925 72.668C269.675 74.5105 272.924 75.4676 276.234 75.4109Z" fill="#F0572D"/>
<path d="M327.146 84.8271C326.372 84.8497 325.602 84.714 324.883 84.4282C324.163 84.1424 323.51 83.7126 322.962 83.1652C322.415 82.6178 321.985 81.9642 321.699 81.2447C321.413 80.5252 321.278 79.7549 321.3 78.981V30.3785C321.278 29.6046 321.413 28.8343 321.699 28.1148C321.985 27.3953 322.415 26.7417 322.962 26.1943C323.51 25.6469 324.163 25.2171 324.883 24.9313C325.602 24.6455 326.372 24.5098 327.146 24.5324C327.904 24.5108 328.659 24.645 329.363 24.9266C330.067 25.2083 330.706 25.6315 331.24 26.17C331.783 26.7194 332.209 27.3739 332.49 28.0932C332.772 28.8126 332.904 29.5818 332.878 30.3539V43.2005L331.732 38.2879C332.338 36.1619 333.287 34.1487 334.54 32.3272C335.793 30.4996 337.32 28.8758 339.068 27.5128C340.849 26.1255 342.846 25.0411 344.979 24.3032C347.17 23.5336 349.477 23.1458 351.8 23.1569C353.652 23.1206 355.465 23.6962 356.958 24.7944C357.624 25.2318 358.171 25.827 358.551 26.5269C358.931 27.2269 359.132 28.01 359.136 28.8064C359.136 30.8698 358.59 32.379 357.498 33.3343C356.539 34.2468 355.269 34.7593 353.945 34.7671C352.795 34.7683 351.66 34.5138 350.621 34.022C349.429 33.4998 348.138 33.2454 346.838 33.277C345.124 33.3063 343.441 33.7382 341.925 34.5379C340.162 35.4371 338.601 36.6883 337.34 38.2142C335.918 39.9373 334.81 41.8966 334.065 44.0029C333.233 46.4004 332.826 48.9246 332.861 51.462V78.981C332.887 79.7531 332.755 80.5223 332.474 81.2417C332.192 81.9611 331.767 82.6155 331.224 83.165C330.694 83.7059 330.059 84.1324 329.357 84.4183C328.656 84.7041 327.903 84.8433 327.146 84.8271V84.8271Z" fill="#F0572D"/>
</svg>
